<svg xmlns="http://www.w3.org/2000/svg" viewBox="0 0 1200 900" fill="none" aria-hidden="true">
  <defs>
    <linearGradient id="bg" x1="0" y1="0" x2="1" y2="1">
      <stop offset="0%" stop-color="#0f172a"/>
      <stop offset="40%" stop-color="#1d4ed8"/>
      <stop offset="100%" stop-color="#059669"/>
    </linearGradient>
    <pattern id="grid" width="40" height="40" patternUnits="userSpaceOnUse">
      <path d="M40 0H0V40" stroke="#ffffff" stroke-opacity="0.07"/>
    </pattern>
  </defs>
  <rect width="1200" height="900" fill="url(#bg)"/>
  <rect width="1200" height="900" fill="url(#grid)"/>
  <circle cx="200" cy="180" r="120" fill="#22c55e" fill-opacity="0.15"/>
  <circle cx="980" cy="720" r="160" fill="#3b82f6" fill-opacity="0.18"/>

  <g transform="translate(180 320)">
    <rect x="0" y="80" width="280" height="200" rx="16" fill="#ffffff" fill-opacity="0.1" stroke="#ffffff" stroke-opacity="0.25"/>
    <rect x="40" y="120" width="200" height="16" rx="8" fill="#22c55e" fill-opacity="0.9"/>
    <rect x="40" y="150" width="160" height="12" rx="6" fill="#ffffff" fill-opacity="0.35"/>
    <rect x="40" y="172" width="120" height="12" rx="6" fill="#ffffff" fill-opacity="0.25"/>
    <circle cx="220" cy="100" r="36" fill="#3b82f6" fill-opacity="0.35" stroke="#93c5fd" stroke-width="2"/>
    <path d="M208 100 L218 110 L234 90" stroke="#fff" stroke-width="4" stroke-linecap="round" stroke-linejoin="round"/>
  </g>

  <g transform="translate(520 260)">
    <rect x="0" y="0" width="520" height="320" rx="20" fill="#ffffff" fill-opacity="0.06" stroke="#ffffff" stroke-opacity="0.2"/>
    <text x="40" y="60" fill="#ffffff" fill-opacity="0.9" font-family="system-ui,sans-serif" font-size="28" font-weight="700">+ Nova empresa</text>
    <text x="40" y="100" fill="#86efac" font-family="system-ui,sans-serif" font-size="20">15 dias gr·tis</text>
    <rect x="40" y="140" width="440" height="48" rx="10" fill="#ffffff" fill-opacity="0.12"/>
    <rect x="40" y="210" width="440" height="48" rx="10" fill="#ffffff" fill-opacity="0.12"/>
    <rect x="40" y="280" width="200" height="44" rx="10" fill="#3b82f6" fill-opacity="0.85"/>
  </g>
</svg>
